<svg xmlns="http://www.w3.org/2000/svg" width="240" height="100" viewBox="0 0 240 100">
  <defs>
    <style>
      .cls-1 {
        fill: #323333;
        fill-rule: evenodd;
      }
    </style>
  </defs>
  <path id="Shohei_s" data-name="Shohei’s" class="cls-1" d="M19.3,49.142c8.58,0,13.26-6.565,13.26-14.236,0-4.29-1.17-6.825-2.86-8.84-2.34-2.86-5.98-3.965-10.465-5.4-1.885-.585-5.525-2.015-7.41-3.9a7.906,7.906,0,0,1-2.015-5.655c0-3.315,2.08-7.605,7.865-7.605a9.067,9.067,0,0,1,7.085,2.8,15.772,15.772,0,0,1,4.03,7.215,0.273,0.273,0,0,0,.39.2l0.78-.2A0.415,0.415,0,0,0,30.284,13c-0.065-1.43-.91-8.06-0.91-10.335a0.975,0.975,0,0,0-.52-1.105,1.259,1.259,0,0,0-.845.39l-0.845.78a0.883,0.883,0,0,1-1.235.065,18.717,18.717,0,0,0-7.67-1.625c-3.51,0-6.76.91-9.1,3.12-2.015,1.885-4.03,5.07-4.03,8.32,0,4.29,1.105,7.345,3.25,9.49,2.8,2.925,7.475,4.55,9.49,5.265,5.2,1.82,10.01,4.29,10.01,10.985,0,5.85-4.94,8.255-8.84,8.255a10.855,10.855,0,0,1-9.1-4.81,12.769,12.769,0,0,1-2.34-7.54c0-.39-0.13-0.52-0.39-0.52l-0.975-.065c-0.26,0-.39,0-0.455.39-0.2,1.885-.845,10.14-1.105,11.765-0.13.715,0.2,1.04,0.585,1.04a1.135,1.135,0,0,0,1.17-.78c0.39-.65.65-1.105,1.04-1.105a2.868,2.868,0,0,1,1.5.78A16,16,0,0,0,19.3,49.142ZM45.558,32.371c0,4.225,0,11.375-.2,12.611-0.13.78-1.1,1.04-2.145,1.04H41.853c-0.715,0-.975.065-0.975,0.52v1.17c0,0.455.2,0.65,0.455,0.65,0.585,0,3.055-.2,6.305-0.2,2.99,0,5.655.2,6.175,0.2,0.39,0,.52-0.26.52-0.715V46.542c0-.39-0.26-0.52-0.715-0.52h-1.95c-1.235,0-1.43-.585-1.43-2.665V29.186A5.652,5.652,0,0,1,51.538,26a7.933,7.933,0,0,1,6.045-2.73,5.96,5.96,0,0,1,4.29,1.82c1.885,1.755,2.145,4.355,2.145,8v5.265c0,2.08.065,5.525,0,6.435-0.065,1.105-1.365,1.235-2.47,1.235H60.053c-0.39,0-.455.2-0.455,0.52v1.105c0,0.52.13,0.715,0.585,0.715,0.585,0,2.925-.2,6.11-0.2,3.705,0,5.785.2,6.24,0.2,0.39,0,.52-0.26.52-0.78V46.607c0-.455-0.2-0.585-0.715-0.585H71.234c-1.365,0-2.405-.2-2.405-0.975,0-1.235-.13-5.265-0.13-8.905V32.437c0-3.51.13-6.825-2.8-9.555a8.525,8.525,0,0,0-6.435-2.6,12.4,12.4,0,0,0-8.905,4.225H50.238v-4.16c0-3.25.065-16.446,0.195-17.551S50.3,1.17,49.913,1.17a3.442,3.442,0,0,0-1.5.52l-6.76,3.575c-0.585.325-.78,0.39-0.78,0.65V6.5c0,0.2.065,0.26,0.455,0.39l1.105,0.39c2.34,0.78,3.12,1.5,3.12,5.46V32.371ZM93.2,48.947c7.995,0,14.366-7.215,14.366-14.3a14.432,14.432,0,0,0-4.42-10.6,13.762,13.762,0,0,0-9.1-3.77,14.065,14.065,0,0,0-8.71,3.12,13.823,13.823,0,0,0-5.59,10.465c0,4.615.585,7.02,3.575,10.6A13.108,13.108,0,0,0,93.2,48.947ZM93.982,47a7.194,7.194,0,0,1-6.435-3.38c-2.08-2.99-2.47-5.46-2.47-9.1,0-4.94.91-7.605,3.445-10.205a6.272,6.272,0,0,1,5.005-2.08c3.315,0,8.581,4.55,8.581,11.766C102.108,40.952,98.922,47,93.982,47Zm25.479-14.626c0,4.225,0,11.375-.195,12.611-0.13.78-1.105,1.04-2.145,1.04h-1.365c-0.715,0-.975.065-0.975,0.52v1.17c0,0.455.195,0.65,0.455,0.65,0.585,0,3.055-.2,6.3-0.2,2.99,0,5.655.2,6.175,0.2,0.39,0,.52-0.26.52-0.715V46.542c0-.39-0.26-0.52-0.715-0.52h-1.95c-1.235,0-1.43-.585-1.43-2.665V29.186a5.652,5.652,0,0,1,1.3-3.185,7.933,7.933,0,0,1,6.045-2.73,5.964,5.964,0,0,1,4.291,1.82c1.885,1.755,2.145,4.355,2.145,8v5.265c0,2.08.065,5.525,0,6.435-0.065,1.105-1.365,1.235-2.471,1.235h-1.5c-0.39,0-.455.2-0.455,0.52v1.105c0,0.52.13,0.715,0.585,0.715,0.585,0,2.926-.2,6.111-0.2,3.7,0,5.785.2,6.24,0.2,0.39,0,.52-0.26.52-0.78V46.607c0-.455-0.195-0.585-0.715-0.585h-1.1c-1.365,0-2.405-.2-2.405-0.975,0-1.235-.13-5.265-0.13-8.905V32.437c0-3.51.13-6.825-2.8-9.555a8.525,8.525,0,0,0-6.436-2.6,12.4,12.4,0,0,0-8.905,4.225h-0.325v-4.16c0-3.25.065-16.446,0.195-17.551s-0.13-1.625-.52-1.625a3.441,3.441,0,0,0-1.5.52l-6.76,3.575c-0.585.325-.78,0.39-0.78,0.65V6.5c0,0.2.065,0.26,0.455,0.39l1.1,0.39c2.34,0.78,3.12,1.5,3.12,5.46V32.371Zm55.445-1.5c1.04,0,1.82-.13,1.82-1.04,0-2.535-2.08-9.555-9.556-9.555-3.25,0-6.5.585-9.295,3.445a14.633,14.633,0,0,0-4.095,10.335c0,4.55.585,6.955,2.86,10.27,2.405,3.51,6.5,4.615,10.205,4.615,5.786,0,9.166-4.485,10.336-7.085,0.325-.715.195-0.91,0-0.975l-0.845-.455a0.527,0.527,0,0,0-.585.325,8.805,8.805,0,0,1-7.866,4.42c-5.2,0-9.23-4.81-9.23-11.18a16.692,16.692,0,0,1,.195-3.12h16.056Zm-15.8-1.95c1.235-4.81,3.965-6.7,6.825-6.7,4.225,0,5,4.29,5,5.785,0,0.585-.52.91-1.755,0.91H159.11Zm29.835,9.88c0,1.95,0,3.965-.065,5.915-0.065,1.04-.325,1.3-1.04,1.3h-3.185c-0.455,0-.651.13-0.651,0.52v1.3a0.452,0.452,0,0,0,.521.52c0.715,0,3.25-.2,7.02-0.2,2.73,0,5.72.2,6.24,0.2,0.455,0,.585-0.2.585-0.65V46.607c0-.39-0.13-0.585-0.65-0.585h-2.99c-0.715,0-.91-0.455-1.04-1.69-0.065-.715-0.065-3.055-0.065-5.59V31.657c0-5.4,0-9.49.13-10.6,0.065-.455,0-0.78-0.325-0.78a2.681,2.681,0,0,0-1.235.39,53.21,53.21,0,0,1-7.02,3.185,0.534,0.534,0,0,0-.455.455V24.9c0,0.26.13,0.39,0.585,0.455,3.25,0.52,3.64,1.69,3.64,3.9v9.555Zm0.65-25.871A3.723,3.723,0,0,0,193.5,9.1a3.425,3.425,0,0,0-3.51-3.445,3.834,3.834,0,0,0-4.1,3.64A3.961,3.961,0,0,0,189.6,12.936ZM208.38,1.17c-2.081,0-3.251,1.3-3.251,2.8,0,2.86,2.731,3.51,3.316,3.77a2.11,2.11,0,0,1,.975,1.82c0,3.185-2.731,6.045-4.1,7.345a0.839,0.839,0,0,0-.52.845,0.525,0.525,0,0,0,.65.52,2.164,2.164,0,0,0,1.17-.52c1.171-.715,6.826-4.875,6.826-10.985A5.5,5.5,0,0,0,208.38,1.17Zm17.679,47.777c5.525,0,9.815-3.315,9.88-8.58-0.065-5.005-3.055-6.955-7.8-8.32-3.185-.91-6.24-1.625-6.24-5.4,0-2.8,2.535-4.29,5-4.29a4.969,4.969,0,0,1,4.55,2.535l2.21,2.99a0.464,0.464,0,0,0,.585.325l0.78-.26a0.6,0.6,0,0,0,.455-0.585l-0.975-4.55c-0.065-.39-0.195-0.715-1.17-1.17a12.109,12.109,0,0,0-5.98-1.365c-4.875,0-9.1,3.445-9.1,7.93,0,5.135,3.835,7.15,7.67,8.255,4.875,1.365,6.305,3.055,6.305,5.98,0,3.055-2.86,4.42-5.135,4.42-3.445,0-4.355-1.625-5.655-4.03l-1.625-3.185a0.486,0.486,0,0,0-.585-0.39l-0.845.2a0.416,0.416,0,0,0-.39.52l1.105,6.175a1.18,1.18,0,0,0,.39.91A12.232,12.232,0,0,0,226.059,48.947Z"/>
  <path id="portfolio" class="cls-1" d="M34.617,88.038c0,4.509,0,6.993-.138,8-0.092.69-.184,1.15-0.966,1.15H31.718c-0.46,0-.552.184-0.552,0.414v0.828a0.349,0.349,0,0,0,.414.414c0.368,0,1.978-.138,4.647-0.138,2.944,0,4.508.138,4.739,0.138a0.349,0.349,0,0,0,.414-0.414V97.653a0.364,0.364,0,0,0-.414-0.46H38.941c-0.69,0-1.012-.23-1.012-1.518V85.968a13.069,13.069,0,0,0,4.6.782c5.751,0,9.937-4.831,9.937-10.857,0-3.543-.736-5.429-2.484-7.177a7.317,7.317,0,0,0-5.245-2.254,8.5,8.5,0,0,0-6.717,3.082H37.883L37.7,67.336c0-.69-0.092-0.92-0.322-0.92a2.654,2.654,0,0,0-1.058.368L31.9,68.992a0.378,0.378,0,0,0-.322.322v0.368a0.387,0.387,0,0,0,.322.414l1.058,0.6c1.334,0.736,1.656,1.38,1.656,2.484v14.86Zm3.312-16.516a5.843,5.843,0,0,1,4.923-2.944c3.082,0,5.981,2.576,5.981,9.017,0,5.7-2.714,7.683-5.337,7.683a7.425,7.425,0,0,1-4.6-1.242,2.556,2.556,0,0,1-.966-2.438V71.523ZM67.6,86.75A10.5,10.5,0,0,0,77.766,76.629a10.214,10.214,0,0,0-3.128-7.5A9.738,9.738,0,0,0,68.2,66.462a9.955,9.955,0,0,0-6.165,2.208,9.783,9.783,0,0,0-3.956,7.407c0,3.266.414,4.969,2.53,7.5A9.277,9.277,0,0,0,67.6,86.75Zm0.552-1.38A5.092,5.092,0,0,1,63.6,82.978a9.922,9.922,0,0,1-1.748-6.441c0-3.5.644-5.383,2.438-7.223a4.439,4.439,0,0,1,3.542-1.472c2.346,0,6.073,3.22,6.073,8.327C73.9,81.092,71.647,85.37,68.151,85.37Zm17.985-7.085c0,2.392,0,4-.046,5.521a0.827,0.827,0,0,1-1.012.874H83.283c-0.414,0-.506.092-0.506,0.414v0.782c0,0.368.092,0.46,0.276,0.46,0.276,0,2.208-.138,5.061-0.138,2.484,0,4.6.138,4.877,0.138,0.184,0,.23-0.138.23-0.414V85.094c0-.276-0.046-0.414-0.322-0.414H90.736c-0.966,0-1.288-.46-1.288-1.886V73.225a4.963,4.963,0,0,1,.46-1.472,3.265,3.265,0,0,1,2.714-1.932,2.963,2.963,0,0,1,1.518.368,3.016,3.016,0,0,0,1.334.368A2.223,2.223,0,0,0,97.407,68.3a2.081,2.081,0,0,0-2.346-2.024c-1.978,0-4.14,1.886-5.521,4H89.356l-0.23-3.266c0-.276-0.046-0.552-0.322-0.552a1.385,1.385,0,0,0-.644.184l-4.555,2.346a0.462,0.462,0,0,0-.368.414v0.276c0,0.184.092,0.23,0.368,0.322l0.874,0.46c1.288,0.69,1.656,1.15,1.656,3.5v4.325Zm21.3-2.438c0-2.116.046-4.371,0.138-6.487h5.935a0.376,0.376,0,0,0,.414-0.368l0.46-1.61a0.3,0.3,0,0,0-.322-0.414h-6.4l0.23-4.508c0-.368-0.092-0.69-0.46-0.69a0.617,0.617,0,0,0-.644.46c-0.6,1.564-4.14,5.107-5.244,5.751a1.112,1.112,0,0,0-.828.828,0.577,0.577,0,0,0,.69.552h2.806c-0.046,1.932-.092,5.061-0.092,5.889v1.012c0,0.644-.138,4.693-0.138,6.579,0,1.748,2.208,3.911,4.463,3.911a7.739,7.739,0,0,0,5.106-1.84,0.368,0.368,0,0,0,.092-0.506l-0.23-.414a0.376,0.376,0,0,0-.552-0.092,6.616,6.616,0,0,1-3.036.6c-0.828,0-2.393-.6-2.393-4.048v-4.6Zm14.121-6.671V83.07c-0.046,1.058-.23,1.61-1.1,1.61h-2.208c-0.368,0-.46.092-0.46,0.322v1.012c0,0.23.092,0.322,0.368,0.322,0.368,0,2.714-.138,5.245-0.138,3.542,0,5.244.138,5.52,0.138,0.23,0,.322-0.184.322-0.552V85.048c0-.276-0.092-0.368-0.506-0.368h-2.622c-0.966,0-1.1-.414-1.2-1.2-0.046-.506-0.046-4.739-0.046-10.167V69.176h5.06c0.368,0,.552-0.046.6-0.23l0.23-1.518a0.334,0.334,0,0,0-.322-0.46h-5.566V66.094c0-3.22-.092-7.223,1.61-9.385a4.1,4.1,0,0,1,3.45-1.61,2.533,2.533,0,0,1,2.117,1.058,4.9,4.9,0,0,0,1.1,1.058,2.939,2.939,0,0,0,1.288.276,2.2,2.2,0,0,0,1.932-1.978c0-1.748-2.024-2.576-4.186-2.576a9.876,9.876,0,0,0-7.545,3.634c-1.794,2.024-3.083,5.015-3.083,9.569v0.828h-2.668c-0.368,0-.506.046-0.552,0.322l-0.184,1.38c-0.092.414,0,.506,0.23,0.506h3.174ZM144.325,86.75a10.5,10.5,0,0,0,10.167-10.121,10.215,10.215,0,0,0-3.128-7.5,9.738,9.738,0,0,0-6.441-2.668,9.957,9.957,0,0,0-6.165,2.208,9.784,9.784,0,0,0-3.956,7.407c0,3.266.414,4.969,2.53,7.5A9.277,9.277,0,0,0,144.325,86.75Zm0.552-1.38a5.091,5.091,0,0,1-4.554-2.392,9.917,9.917,0,0,1-1.749-6.441c0-3.5.644-5.383,2.439-7.223a4.438,4.438,0,0,1,3.542-1.472c2.346,0,6.073,3.22,6.073,8.327C150.628,81.092,148.373,85.37,144.877,85.37Zm21.251-16.976c0-2.53.138-12.1,0.184-14.63,0.046-.6-0.046-0.828-0.368-0.828a1.7,1.7,0,0,0-.966.368,41.67,41.67,0,0,1-5.383,2.668,0.457,0.457,0,0,0-.414.322v0.368c0,0.092.046,0.138,0.276,0.23l0.92,0.322a2.767,2.767,0,0,1,2.3,2.76c0.092,1.2.138,5.383,0.138,8.649v2.9c0,2.668,0,10.581-.046,12.007a1.03,1.03,0,0,1-1.013,1.15h-2.208c-0.506,0-.6.092-0.6,0.414v0.782c0,0.276.092,0.46,0.322,0.46,0.414,0,2.254-.138,5.2-0.138,2.852,0,4.876.138,5.2,0.138,0.184,0,.276-0.184.276-0.46V85.094c0-.276-0.092-0.414-0.506-0.414h-2.07c-0.966,0-1.15-.644-1.2-1.426-0.046-1.426-.046-8.373-0.046-10.765V68.394Zm11.039,11.179c0,1.38,0,2.806-.046,4.186-0.046.736-.23,0.92-0.736,0.92h-2.254c-0.322,0-.46.092-0.46,0.368v0.92a0.319,0.319,0,0,0,.368.368c0.506,0,2.3-.138,4.969-0.138,1.932,0,4.048.138,4.416,0.138,0.322,0,.414-0.138.414-0.46V85.094c0-.276-0.092-0.414-0.46-0.414h-2.116c-0.506,0-.644-0.322-0.736-1.2-0.046-.506-0.046-2.162-0.046-3.956V74.513c0-3.818,0-6.717.092-7.5,0.046-.322,0-0.552-0.23-0.552a1.9,1.9,0,0,0-.874.276,37.659,37.659,0,0,1-4.969,2.254,0.378,0.378,0,0,0-.322.322v0.414c0,0.184.092,0.276,0.414,0.322,2.3,0.368,2.576,1.2,2.576,2.76v6.763Zm0.46-18.31a2.635,2.635,0,0,0,2.761-2.714,2.424,2.424,0,0,0-2.484-2.438,2.714,2.714,0,0,0-2.9,2.576A2.8,2.8,0,0,0,177.627,61.263ZM198.19,86.75a10.5,10.5,0,0,0,10.167-10.121,10.215,10.215,0,0,0-3.128-7.5,9.738,9.738,0,0,0-6.441-2.668,9.957,9.957,0,0,0-6.165,2.208,9.784,9.784,0,0,0-3.956,7.407c0,3.266.414,4.969,2.53,7.5A9.279,9.279,0,0,0,198.19,86.75Zm0.552-1.38a5.091,5.091,0,0,1-4.554-2.392,9.917,9.917,0,0,1-1.749-6.441c0-3.5.645-5.383,2.439-7.223a4.438,4.438,0,0,1,3.542-1.472c2.346,0,6.073,3.22,6.073,8.327C204.493,81.092,202.239,85.37,198.742,85.37Z"/>
</svg>
